<svg width="156" height="66" viewBox="0 0 156 66" fill="none" xmlns="http://www.w3.org/2000/svg">
<path d="M135.337 19.3145C136.789 19.3145 138.241 19.3145 139.737 19.3145C139.873 19.6007 140.004 19.8821 140.118 20.1738C140.139 20.228 140.139 20.228 140.161 20.2833C140.209 20.4028 140.256 20.5224 140.303 20.6419C140.337 20.7284 140.371 20.8148 140.405 20.9013C140.498 21.1356 140.59 21.3701 140.683 21.6045C140.76 21.8023 140.838 22.0001 140.916 22.1978C141.102 22.6672 141.287 23.1367 141.472 23.6062C141.639 24.0312 141.807 24.4561 141.974 24.881C143.835 29.5937 143.835 29.5937 144.527 31.5157C144.54 31.551 144.552 31.5863 144.566 31.6227C144.694 31.9805 144.82 32.3388 144.942 32.6982C144.991 32.8401 145.04 32.9819 145.089 33.1236C145.442 34.1538 145.76 35.1897 146.086 36.2267C146.086 30.6456 146.086 25.0646 146.086 19.3145C148.264 19.3378 148.264 19.3378 150.486 19.3616C150.486 29.4199 150.486 39.4781 150.486 49.8412C149.861 49.8006 149.245 49.7478 148.625 49.6755C148.508 49.6622 148.39 49.6498 148.272 49.6382C148.1 49.6211 147.929 49.6013 147.757 49.5808C147.704 49.5762 147.652 49.5716 147.598 49.5668C147.447 49.5471 147.334 49.5256 147.2 49.4643C147.078 49.3199 147.032 49.1636 146.978 48.9933C146.937 48.8862 146.895 48.7791 146.854 48.6721C146.809 48.5483 146.764 48.4245 146.719 48.3006C146.694 48.2322 146.669 48.1638 146.644 48.0954C146.59 47.9491 146.537 47.8029 146.483 47.6566C146.355 47.3028 146.225 46.9492 146.096 46.5956C146.051 46.4735 146.006 46.3514 145.961 46.2293C145.668 45.4275 145.371 44.6266 145.074 43.826C145.048 43.7574 145.023 43.6889 144.997 43.6203C144.625 42.6184 144.249 41.6172 143.873 40.6162C143.357 39.2436 142.848 37.8692 142.342 36.4939C142.268 36.2922 142.193 36.0905 142.119 35.8889C141.289 33.6394 140.495 31.3809 139.737 29.1132C139.736 29.4976 139.735 29.8821 139.734 30.2666C139.734 30.4456 139.734 30.6246 139.733 30.8035C139.73 31.5823 139.733 32.3609 139.75 33.1395C139.791 35.0793 139.799 37.0188 139.798 38.9588C139.798 38.9936 139.798 39.0284 139.798 39.0642C139.798 39.9614 139.798 40.8586 139.797 41.7557C139.797 42.2767 139.796 42.7977 139.796 43.3187C139.796 43.3558 139.796 43.3929 139.796 43.4311C139.796 43.6175 139.796 43.8038 139.796 43.9901C139.795 45.5165 139.794 47.0429 139.793 48.5693C139.343 48.5218 138.892 48.4743 138.442 48.4267C138.233 48.4047 138.024 48.3826 137.814 48.3605C137.612 48.3392 137.409 48.3178 137.207 48.2964C137.13 48.2883 137.054 48.2802 136.977 48.2722C136.449 48.2165 135.921 48.1584 135.393 48.0982C135.348 43.9153 135.332 39.7327 135.332 35.5497C135.332 35.4905 135.332 35.4314 135.332 35.3705C135.332 33.854 135.333 32.3374 135.333 30.8208C135.334 29.9413 135.334 29.0617 135.334 28.1822C135.334 28.1508 135.334 28.1193 135.334 28.0869C135.335 27.7709 135.335 27.4549 135.335 27.1389C135.335 24.5307 135.336 21.9226 135.337 19.3145Z" fill="white"/>
<path d="M122.747 18.8732C122.812 18.8732 122.812 18.8732 122.878 18.8733C123.88 18.876 124.794 18.988 125.703 19.362C125.757 19.3843 125.757 19.3843 125.812 19.407C127.8 20.246 128.912 21.9141 129.6 23.6349C130.163 25.1084 130.434 26.6472 130.59 28.1861C130.593 28.2186 130.596 28.2511 130.6 28.2846C130.704 29.3368 130.724 30.3871 130.725 31.4424C130.725 31.556 130.725 31.6696 130.725 31.7833C130.725 32.1829 130.726 32.5826 130.726 32.9822C130.726 33.3493 130.726 33.7164 130.727 34.0835C130.728 34.403 130.728 34.7225 130.728 35.0419C130.728 35.2308 130.728 35.4197 130.729 35.6086C130.733 36.9506 130.691 38.2965 130.506 39.6307C130.502 39.6646 130.497 39.6985 130.492 39.7334C130.166 42.1253 129.494 44.8892 127.148 46.4702C125.724 47.3431 124.008 47.5395 122.295 47.3203C121.424 47.1953 120.623 46.9592 119.855 46.5911C119.801 46.5655 119.747 46.54 119.691 46.5136C117.491 45.4004 116.433 43.2714 115.821 41.2641C115.51 40.1999 115.341 39.1213 115.218 38.0319C115.214 37.9911 115.209 37.9503 115.204 37.9082C115.098 36.9594 115.055 36.0108 115.034 35.0582C115.033 35.0078 115.031 34.9575 115.03 34.9057C114.845 26.6495 114.845 26.6495 116.179 23.3191C116.193 23.2838 116.207 23.2484 116.222 23.212C116.419 22.7242 116.671 22.2658 116.959 21.8116C116.99 21.7617 117.022 21.7117 117.054 21.6602C117.891 20.3928 119.194 19.4648 120.846 19.0579C120.961 19.0314 121.076 19.0077 121.191 18.9851C121.257 18.972 121.257 18.972 121.323 18.9586C121.795 18.8742 122.267 18.8721 122.747 18.8732ZM121.178 23.0597C120.148 24.1453 119.93 25.6981 119.799 27.0408C119.794 27.0874 119.79 27.1341 119.785 27.1822C119.739 27.6962 119.735 28.2082 119.735 28.7235C119.735 28.8198 119.735 28.9162 119.735 29.0126C119.734 29.2725 119.734 29.5324 119.734 29.7923C119.734 29.9554 119.734 30.1185 119.734 30.2817C119.733 30.8528 119.733 31.424 119.733 31.9952C119.733 32.5241 119.733 33.053 119.732 33.5819C119.731 34.0387 119.731 34.4955 119.731 34.9523C119.731 35.2239 119.731 35.4955 119.73 35.7671C119.597 39.7692 119.597 39.7692 121.581 43.2463C122.112 43.6365 122.676 43.8062 123.379 43.7886C123.831 43.736 124.247 43.5444 124.553 43.2565C126.59 40.9357 126.147 37.0068 126.001 34.2911C125.957 33.4642 125.983 32.6363 126.004 31.8092C126.287 27.0985 126.287 27.0985 124.165 22.9515C123.672 22.5692 123.16 22.447 122.501 22.4564C121.965 22.4968 121.532 22.7273 121.178 23.0597Z" fill="white"/>
<path d="M28.2366 19.3145C29.9275 19.3145 31.6184 19.3145 33.3605 19.3145C33.4458 19.721 33.5311 20.1275 33.619 20.5463C33.677 20.8229 33.7351 21.0995 33.7931 21.376C33.8045 21.43 33.8045 21.43 33.816 21.485C34.1554 23.1018 34.4951 24.7185 34.8349 26.3352C34.8545 26.4283 34.874 26.5215 34.8936 26.6146C35.2073 28.1071 35.5212 29.5994 35.8354 31.0918C35.8458 31.1409 35.8561 31.19 35.8668 31.2407C36.5585 34.5252 37.2543 37.8092 37.9532 41.0926C37.9866 41.2495 38.02 41.4064 38.0534 41.5632C38.1892 42.2014 38.3251 42.8395 38.461 43.4777C38.4895 43.6111 38.5179 43.7445 38.5463 43.878C38.5904 44.085 38.6345 44.292 38.6787 44.499C38.6945 44.5734 38.7104 44.6478 38.7262 44.7222C38.7409 44.7912 38.7556 44.8602 38.7703 44.9291C38.7843 44.9946 38.7982 45.0601 38.8121 45.1256C38.8472 45.2902 38.8836 45.4544 38.922 45.6184C38.9298 45.6521 38.9376 45.6857 38.9456 45.7205C38.9671 45.8129 38.9889 45.9053 39.0108 45.9977C39.0414 46.1668 39.0468 46.3257 39.0414 46.4965C38.4836 46.5397 37.9259 46.5827 37.3681 46.6255C37.1091 46.6453 36.85 46.6652 36.591 46.6853C36.3408 46.7048 36.0905 46.724 35.8403 46.7431C35.7451 46.7504 35.6499 46.7577 35.5547 46.7652C35.4208 46.7756 35.2868 46.7858 35.1529 46.796C35.1141 46.799 35.0752 46.8021 35.0352 46.8053C34.7547 46.8262 34.4776 46.8286 34.1959 46.8262C34.0505 46.0134 33.9052 45.2006 33.7602 44.3877C33.6929 44.0102 33.6255 43.6328 33.558 43.2554C33.4991 42.9265 33.4403 42.5975 33.3817 42.2685C33.3507 42.0943 33.3196 41.9201 33.2883 41.746C33.2534 41.5515 33.2189 41.3571 33.1843 41.1626C33.1739 41.1049 33.1635 41.0471 33.1527 40.9876C33.1387 40.9081 33.1387 40.9081 33.1243 40.8269C33.1161 40.7809 33.1079 40.7349 33.0995 40.6875C33.0821 40.5607 33.0821 40.5607 33.0821 40.3252C30.6836 40.4884 30.6836 40.4884 28.2366 40.6549C28.1364 41.1354 28.0386 41.6125 27.9595 42.0952C27.9497 42.1536 27.94 42.212 27.93 42.2721C27.9093 42.3971 27.8885 42.522 27.8679 42.647C27.8354 42.8446 27.8025 43.0422 27.7696 43.2397C27.6881 43.7293 27.6069 44.219 27.5259 44.7087C27.4625 45.0915 27.399 45.4744 27.3352 45.8572C27.3025 46.0537 27.2699 46.2503 27.2376 46.4468C27.2128 46.5968 27.1878 46.7468 27.1628 46.8968C27.1494 46.9786 27.1494 46.9786 27.1358 47.062C27.1275 47.1113 27.1192 47.1605 27.1107 47.2112C27.1036 47.2543 27.0964 47.2973 27.0891 47.3417C27.0671 47.4387 27.0671 47.4387 27.0114 47.4858C26.8763 47.5029 26.7421 47.5173 26.6065 47.53C26.5641 47.5342 26.5217 47.5383 26.478 47.5426C26.3371 47.5563 26.1962 47.5697 26.0552 47.5831C25.9574 47.5925 25.8597 47.602 25.7619 47.6114C25.5565 47.6312 25.3511 47.6509 25.1457 47.6705C24.8828 47.6955 24.6199 47.7209 24.3571 47.7463C24.1549 47.7659 23.9528 47.7853 23.7506 47.8047C23.6537 47.8139 23.5568 47.8233 23.46 47.8327C23.3242 47.8458 23.1883 47.8587 23.0525 47.8716C22.9927 47.8774 22.9927 47.8774 22.9317 47.8834C22.7122 47.9039 22.498 47.9112 22.2773 47.9097C22.7332 45.613 23.1989 43.3178 23.6719 41.0236C23.7172 40.8034 23.7626 40.5833 23.808 40.3631C24.8131 35.4839 25.8287 30.6063 27.4765 22.7729C27.5259 22.539 27.5753 22.3051 27.6246 22.0712C27.7081 21.6754 27.7917 21.2797 27.8755 20.884C27.9029 20.7545 27.9303 20.6251 27.9576 20.4957C27.9944 20.3212 28.0314 20.1468 28.0684 19.9723C28.0791 19.9214 28.0898 19.8704 28.1009 19.818C28.1107 19.7718 28.1205 19.7257 28.1307 19.6782C28.1391 19.6383 28.1475 19.5985 28.1562 19.5574C28.1809 19.4558 28.1809 19.4558 28.2366 19.3145ZM30.5758 25.7684C30.571 25.8014 30.5662 25.8344 30.5613 25.8684C30.3077 27.6138 30.0394 29.3569 29.7454 31.0976C29.7349 31.1597 29.7349 31.1597 29.7242 31.223C29.6248 31.8117 29.5248 32.4003 29.4246 32.9889C29.3221 33.5914 29.2197 34.194 29.1178 34.7967C29.0773 35.0363 29.0366 35.2758 28.9956 35.5154C28.9704 35.6625 28.9455 35.8096 28.9207 35.9567C28.9092 36.0245 28.8976 36.0923 28.886 36.1601C28.87 36.2527 28.8544 36.3453 28.8388 36.438C28.8301 36.4896 28.8213 36.5412 28.8122 36.5944C28.7923 36.7555 28.7904 36.9128 28.7936 37.0746C29.0485 37.063 29.3035 37.0513 29.5584 37.0395C29.6443 37.0356 29.7301 37.0317 29.8159 37.0278C30.701 36.9876 31.5852 36.937 32.4694 36.8862C32.4597 36.8297 32.4501 36.7732 32.4401 36.7149C31.6145 31.8939 31.6145 31.8939 31.2232 29.5302C31.2027 29.4067 31.1822 29.2833 31.1616 29.1598C31.0143 28.2751 30.875 27.3903 30.7564 26.5025C30.7521 26.4706 30.7478 26.4387 30.7434 26.4058C30.7319 26.3203 30.7206 26.2347 30.7093 26.1492C30.6897 26.0205 30.6638 25.8952 30.6315 25.7684C30.6131 25.7684 30.5947 25.7684 30.5758 25.7684Z" fill="white"/>
<path d="M12.74 18.8704C12.7813 18.8705 12.8227 18.8706 12.8653 18.8708C13.517 18.8741 14.1348 18.9112 14.7589 19.0794C14.7974 19.0895 14.8359 19.0996 14.8756 19.11C16.6678 19.5934 17.9694 20.7216 18.8331 22.1029C19.2858 22.8458 19.5971 23.6189 19.8201 24.4322C19.8315 24.4734 19.8428 24.5147 19.8545 24.5572C19.9302 24.8499 19.9693 25.1404 19.9942 25.4391C19.5533 25.5717 19.1039 25.6662 18.6497 25.7592C18.5687 25.7758 18.4876 25.7925 18.4066 25.8092C18.2378 25.844 18.0689 25.8786 17.8999 25.9132C17.6838 25.9574 17.4678 26.002 17.2518 26.0467C17.0849 26.0812 16.918 26.1155 16.751 26.1496C16.6713 26.166 16.5916 26.1824 16.512 26.1989C16.4008 26.222 16.2895 26.2447 16.1782 26.2673C16.115 26.2802 16.0519 26.2932 15.9868 26.3066C15.8313 26.3319 15.6964 26.3436 15.5386 26.3342C15.4453 26.2553 15.4501 26.1507 15.4283 26.0427C15.2115 25.0042 14.9326 23.7222 13.8469 23.0631C13.3601 22.8138 12.8491 22.7309 12.2931 22.8353C11.7263 22.9702 11.3889 23.137 11.0629 23.5553C10.3773 24.614 10.4692 25.9769 10.8394 27.1056C11.1978 28.1425 11.8236 29.0549 12.5868 29.9145C12.6095 29.9402 12.6322 29.966 12.6556 29.9925C12.9594 30.3362 13.2791 30.6666 13.6089 30.9927C13.7429 31.1253 13.8736 31.26 14.0036 31.3955C14.196 31.5956 14.3928 31.792 14.5918 31.9873C14.8758 32.2663 15.1531 32.5494 15.4273 32.8353C15.4833 32.893 15.5395 32.9508 15.5956 33.0085C16.931 34.3838 18.1417 35.8415 19.0474 37.452C19.0642 37.4818 19.081 37.5117 19.0983 37.5424C19.5842 38.4171 19.9009 39.3289 20.1056 40.2785C20.113 40.3125 20.1204 40.3464 20.128 40.3813C20.5553 42.454 20.0011 44.7815 18.584 46.5176C18.2392 46.9159 17.8502 47.2833 17.4323 47.6276C17.4078 47.6504 17.3834 47.6731 17.3583 47.6966C16.0568 48.8781 14.093 49.382 12.2414 49.4737C10.6154 49.5037 9.21748 49.0287 8.04078 48.0898C6.62953 46.8373 5.97785 45.084 5.65637 43.4113C5.64724 43.3638 5.6381 43.3164 5.6287 43.2675C5.57704 42.9758 5.55861 42.6932 5.56934 42.3985C6.66366 42.1307 7.75992 41.8694 8.85879 41.6153C8.91348 41.6026 8.96816 41.5899 9.0245 41.5768C9.17989 41.5408 9.33533 41.5049 9.4908 41.4692C9.53764 41.4583 9.58449 41.4474 9.63275 41.4362C9.95638 41.3621 9.95638 41.3621 10.0806 41.3621C10.0876 41.4033 10.0945 41.4445 10.1017 41.487C10.3286 42.8521 10.3286 42.8521 10.8568 44.1503C10.8742 44.1825 10.8916 44.2148 10.9094 44.2479C11.0271 44.4527 11.1682 44.6135 11.3521 44.7797C11.4173 44.8481 11.4173 44.8481 11.4173 44.9424C11.4496 44.9555 11.4819 44.9686 11.5152 44.9821C11.6722 45.0506 11.8163 45.1321 11.9633 45.2147C12.4723 45.4537 13.089 45.421 13.6346 45.2898C14.2804 45.0981 14.7473 44.814 15.0757 44.3005C15.823 42.9486 15.5258 41.3655 14.9647 40.0086C14.3747 38.6931 13.3823 37.5803 12.3362 36.5019C12.2639 36.4272 12.1921 36.3522 12.1204 36.2772C11.8545 35.9993 11.5799 35.7285 11.3026 35.4588C10.7857 34.956 10.282 34.4473 9.80212 33.9188C9.77052 33.8841 9.73892 33.8495 9.70637 33.8137C9.16866 33.2218 8.66395 32.6154 8.18698 31.9873C8.16392 31.9571 8.14085 31.9269 8.11709 31.8958C6.95364 30.3574 6.13933 28.6649 5.84782 26.8524C5.84049 26.8086 5.83317 26.7649 5.82563 26.7197C5.56258 24.7985 6.09721 22.5635 7.53456 21.0286C7.70913 20.8455 7.89045 20.6682 8.07559 20.4927C8.11213 20.4578 8.14868 20.4228 8.18633 20.3869C9.35768 19.3324 11.0665 18.858 12.74 18.8704Z" fill="white"/>
<path d="M77.0813 19.2676C78.7538 19.2676 80.4263 19.2676 82.1495 19.2676C82.2198 19.4458 82.2775 19.5973 82.318 19.7777C82.3329 19.8431 82.3329 19.8431 82.3481 19.9098C82.3639 19.9807 82.3639 19.9807 82.38 20.0531C82.3915 20.1039 82.403 20.1547 82.4148 20.2071C82.4534 20.3778 82.4916 20.5486 82.5298 20.7193C82.5575 20.842 82.5851 20.9648 82.6128 21.0875C82.6728 21.3536 82.7327 21.6197 82.7924 21.8858C82.8808 22.2796 82.9695 22.6734 83.0583 23.0672C83.1002 23.2533 83.1422 23.4395 83.1841 23.6256C83.1925 23.663 83.2009 23.7004 83.2096 23.7389C83.2704 24.0088 83.3312 24.2787 83.3919 24.5487C83.6308 25.6103 83.8702 26.6719 84.1101 27.7334C84.1269 27.8076 84.1437 27.8817 84.1604 27.9559C84.228 28.2547 84.2955 28.5536 84.3631 28.8524C84.5451 29.6579 84.7271 30.4635 84.909 31.269C84.9358 31.3875 84.9626 31.506 84.9893 31.6245C85.2867 32.9409 85.584 34.2574 85.8813 35.5738C85.8918 35.6205 85.9024 35.6672 85.9132 35.7153C86.1203 36.6323 86.3274 37.5492 86.5344 38.4662C86.5825 38.6793 86.6306 38.8924 86.6788 39.1055C86.7622 39.4751 86.8457 39.8448 86.9291 40.2145C86.9737 40.4124 87.0184 40.6104 87.0631 40.8083C87.0718 40.8469 87.0805 40.8855 87.0895 40.9252C87.2133 41.4738 87.3379 42.0223 87.4631 42.5707C87.5147 42.7969 87.5661 43.0232 87.6176 43.2494C87.6656 43.4605 87.7139 43.6716 87.7623 43.8826C87.7846 43.98 87.8068 44.0774 87.829 44.1748C87.8557 44.2924 87.8826 44.4099 87.9097 44.5273C87.9214 44.5789 87.933 44.6305 87.9451 44.6837C87.9603 44.7505 87.9603 44.7505 87.9759 44.8186C87.9971 44.9403 88.0014 45.0549 87.9974 45.1776C86.3811 45.1828 84.7674 45.1815 83.152 45.1305C82.8972 43.9389 82.6633 42.7447 82.4357 41.5491C82.388 41.2986 82.34 41.0482 82.2919 40.7977C82.2545 40.6027 82.2173 40.4076 82.1801 40.2125C82.1625 40.12 82.1447 40.0275 82.1269 39.935C82.1024 39.8071 82.0781 39.6791 82.0538 39.5512C82.0465 39.5136 82.0393 39.476 82.0318 39.4372C81.9981 39.2578 81.9824 39.0949 81.9824 38.9121C80.3651 38.9121 78.7477 38.9121 77.0813 38.9121C76.9894 39.4562 76.8975 40.0003 76.8029 40.5609C76.7345 40.944 76.6656 41.3269 76.5949 41.7096C76.5767 41.8085 76.5585 41.9074 76.5403 42.0064C76.5029 42.2092 76.4655 42.4121 76.428 42.615C76.3799 42.8753 76.3321 43.1356 76.2844 43.396C76.2473 43.5982 76.2099 43.8005 76.1726 44.0027C76.1548 44.0989 76.1371 44.1951 76.1195 44.2913C76.0953 44.4239 76.0707 44.5565 76.046 44.6891C76.0389 44.7286 76.0317 44.7681 76.0243 44.8089C75.9738 45.078 75.9738 45.078 75.9118 45.1305C75.7643 45.135 75.6183 45.1364 75.4709 45.1359C75.4247 45.1359 75.3785 45.1359 75.3309 45.1359C75.1775 45.1359 75.0241 45.1355 74.8708 45.1351C74.7647 45.135 74.6586 45.135 74.5526 45.1349C74.2729 45.1348 73.9931 45.1343 73.7134 45.1338C73.4282 45.1333 73.143 45.1331 72.8578 45.1328C72.2978 45.1323 71.7378 45.1315 71.1777 45.1305C71.2561 44.6734 71.3533 44.2201 71.4577 43.7668C71.4746 43.6929 71.4916 43.6189 71.5084 43.545C71.5543 43.3443 71.6004 43.1437 71.6465 42.943C71.6958 42.7282 71.745 42.5133 71.7941 42.2985C71.8785 41.9298 71.963 41.561 72.0476 41.1923C72.1817 40.6079 72.3155 40.0234 72.4493 39.439C72.4718 39.3405 72.4944 39.2419 72.5169 39.1434C72.5508 38.9956 72.5846 38.8477 72.6184 38.6999C72.6863 38.4034 72.7542 38.107 72.8221 37.8105C73.1883 36.2113 73.5534 34.6119 73.9173 33.0124C73.959 32.8288 74.0008 32.6453 74.0426 32.4618C74.1813 31.8521 74.32 31.2425 74.4587 30.6329C74.8121 29.0793 75.1657 27.5258 75.5193 25.9723C75.6546 25.3775 75.79 24.7828 75.9253 24.188C76.0104 23.814 76.0956 23.4399 76.1807 23.0659C76.2301 22.8488 76.2795 22.6317 76.3289 22.4145C76.3476 22.3325 76.3662 22.2505 76.3849 22.1684C76.3985 22.1087 76.3985 22.1087 76.4124 22.0477C76.4561 21.8553 76.5 21.6628 76.5438 21.4704C76.5605 21.3972 76.5772 21.3239 76.5939 21.2507C76.6021 21.2151 76.6102 21.1795 76.6185 21.1429C76.6678 20.9266 76.7168 20.7103 76.7656 20.4939C76.7968 20.3559 76.828 20.2178 76.8593 20.0798C76.8739 20.0156 76.8883 19.9514 76.9027 19.8872C76.9223 19.7999 76.9421 19.7127 76.9619 19.6256C76.9729 19.5766 76.984 19.5277 76.9953 19.4773C77.0256 19.3618 77.0256 19.3618 77.0813 19.2676ZM79.4205 25.2976C79.4115 25.3575 79.4025 25.4174 79.3932 25.4791C79.2019 26.7443 78.9981 28.0075 78.7728 29.2687C78.7673 29.2998 78.7617 29.3309 78.756 29.363C78.6878 29.7449 78.619 30.1268 78.5502 30.5087C78.4575 31.0222 78.3655 31.5358 78.2733 32.0495C78.2346 32.2656 78.1958 32.4817 78.1569 32.6978C77.9797 33.6852 77.8078 34.6732 77.6383 35.6616C78.8513 35.6616 80.0643 35.6616 81.3141 35.6616C81.2731 35.2207 81.2731 35.2207 81.2061 34.7859C81.1959 34.7312 81.1857 34.6766 81.1751 34.6203C81.1641 34.5624 81.153 34.5045 81.1416 34.4448C81.1297 34.3815 81.1177 34.3182 81.1059 34.2548C81.0804 34.1191 81.0547 33.9834 81.0289 33.8477C80.9876 33.6298 80.9466 33.4119 80.9057 33.194C80.7965 32.6126 80.6869 32.0312 80.5769 31.4499C80.491 30.9956 80.4054 30.5413 80.3203 30.087C80.3062 30.012 80.2922 29.937 80.2781 29.862C80.1231 29.0356 79.9725 28.209 79.8404 27.3798C79.8352 27.3467 79.8299 27.3137 79.8245 27.2796C79.7704 26.9391 79.7176 26.5984 79.6663 26.2575C79.6579 26.2028 79.6495 26.148 79.6408 26.0916C79.6253 25.9902 79.6102 25.8888 79.5955 25.7874C79.5887 25.7431 79.5819 25.6989 79.5749 25.6533C79.5664 25.5959 79.5664 25.5959 79.5577 25.5373C79.5357 25.4252 79.5357 25.4252 79.4205 25.2976Z" fill="white"/>
<path d="M54.4688 19.2676C56.1045 19.2676 57.7402 19.2676 59.4256 19.2676C59.8098 21.2176 59.8098 21.2176 59.9813 22.1529C60.0011 22.2604 60.0209 22.368 60.0408 22.4755C60.0936 22.7622 60.1463 23.0489 60.199 23.3356C60.2494 23.6103 60.3 23.885 60.3506 24.1598C60.4513 24.7067 60.5519 25.2537 60.6524 25.8006C60.7482 26.3215 60.844 26.8423 60.9398 27.3631C60.9517 27.4274 60.9635 27.4917 60.9753 27.556C60.993 27.6522 61.0107 27.7483 61.0285 27.8445C61.2504 29.0502 61.472 30.2559 61.6932 31.4617C61.7142 31.576 61.7352 31.6904 61.7562 31.8047C61.7663 31.8601 61.7765 31.9156 61.787 31.9727C61.8614 32.3784 61.9361 32.7842 62.0108 33.1899C62.0743 33.5352 62.1377 33.8806 62.2009 34.226C62.2356 34.4151 62.2702 34.6041 62.3051 34.7932C62.5146 35.9278 62.6955 37.064 62.8383 38.2061C62.8574 38.3543 62.8784 38.4876 62.9343 38.6295C62.9387 38.598 62.9431 38.5665 62.9477 38.5341C63.2183 36.6088 63.5191 34.6887 63.852 32.7704C63.9132 32.418 63.9738 32.0655 64.0345 31.713C64.1432 31.0814 64.2522 30.4499 64.3615 29.8183C64.466 29.2146 64.5703 28.6108 64.6744 28.007C64.684 27.9511 64.684 27.9511 64.6938 27.8941C64.7197 27.7441 64.7456 27.594 64.7714 27.444C65.0354 25.9122 65.2996 24.3804 65.5652 22.8488C65.6276 22.4888 65.6899 22.1287 65.7521 21.7685C65.799 21.497 65.8461 21.2255 65.8932 20.9539C65.9211 20.7931 65.949 20.6322 65.9767 20.4712C66.0071 20.2952 66.0376 20.1191 66.0682 19.9431C66.0772 19.8907 66.0862 19.8384 66.0954 19.7845C66.1038 19.7368 66.1121 19.689 66.1207 19.6399C66.1279 19.5984 66.135 19.557 66.1424 19.5143C66.1646 19.4089 66.1646 19.4089 66.2203 19.2676C67.856 19.2676 69.4918 19.2676 71.1771 19.2676C71.0148 20.0086 70.8524 20.7488 70.6768 21.4875C70.6562 21.5744 70.6357 21.6614 70.6151 21.7483C70.5713 21.9333 70.5275 22.1184 70.4836 22.3033C70.4131 22.6001 70.3429 22.8969 70.2726 23.1938C70.1724 23.6171 70.0721 24.0405 69.9717 24.4639C69.7237 25.5104 69.476 26.557 69.2284 27.6037C69.1897 27.7672 69.151 27.9306 69.1123 28.0941C68.7217 29.7447 68.3327 31.3956 67.9468 33.047C67.855 33.4397 67.7632 33.8324 67.6714 34.2251C67.6602 34.2727 67.6491 34.3203 67.6376 34.3693C67.4392 35.2173 67.2392 36.0649 67.0387 36.9126C67.0312 36.9444 67.0236 36.9763 67.0159 37.0091C66.8718 37.618 66.7277 38.2268 66.5835 38.8356C66.292 40.0668 66.0006 41.298 65.7134 42.53C65.6972 42.5993 65.6972 42.5993 65.6807 42.6701C65.5816 43.0951 65.4827 43.5201 65.3841 43.9452C65.35 44.0925 65.3157 44.2399 65.2814 44.3872C65.2586 44.4858 65.2358 44.5844 65.213 44.683C65.1996 44.7407 65.1862 44.7983 65.1724 44.8577C65.1609 44.9074 65.1494 44.9571 65.1375 45.0083C65.1064 45.1305 65.1064 45.1305 65.0507 45.2719C64.6341 45.2856 64.2174 45.299 63.8008 45.3121C63.6598 45.3166 63.5188 45.3212 63.3778 45.3258C63.1722 45.3326 62.9665 45.3391 62.7609 45.3455C62.6702 45.3486 62.6702 45.3486 62.5777 45.3517C61.8614 45.3734 61.1447 45.368 60.4281 45.3661C59.8869 43.0492 59.3491 40.7317 58.8141 38.4138C58.7847 38.2862 58.7552 38.1587 58.7258 38.0311C57.8862 34.3939 57.0517 30.7559 56.2215 27.1172C56.1556 26.8283 56.0897 26.5394 56.0238 26.2505C55.8059 25.2959 55.5881 24.3412 55.3707 23.3865C55.3516 23.3025 55.3324 23.2185 55.3133 23.1345C55.3039 23.0931 55.2945 23.0518 55.2848 23.0092C55.219 22.7202 55.153 22.4311 55.0871 22.1421C55.0076 21.7936 54.9282 21.445 54.8489 21.0964C54.8085 20.9185 54.768 20.7406 54.7273 20.5627C54.6833 20.3697 54.6394 20.1767 54.5956 19.9837C54.5826 19.9269 54.5696 19.8702 54.5562 19.8117C54.5388 19.7345 54.5388 19.7345 54.5209 19.6558C54.5108 19.6112 54.5006 19.5666 54.4902 19.5207C54.4688 19.4089 54.4688 19.4089 54.4688 19.2676Z" fill="white"/>
<path d="M86.8271 19.2676C91.7344 19.2676 96.6416 19.2676 101.698 19.2676C101.74 20.382 101.753 21.4973 101.753 22.6123C100.062 22.6123 98.3715 22.6123 96.6294 22.6123C96.6334 23.307 96.6374 24.0016 96.6415 24.7173C96.6441 25.1808 96.6467 25.6443 96.6492 26.1078C96.6495 26.1675 96.6498 26.2272 96.6501 26.2887C96.6524 26.7025 96.6545 27.1164 96.6567 27.5303C96.6572 27.6262 96.6577 27.722 96.6582 27.8179C96.6757 31.1608 96.6881 34.5037 96.6886 40.3571C96.6885 40.4523 96.6885 40.5476 96.6885 40.6428C96.6879 42.2329 96.6868 43.8231 96.6851 45.4132C96.5174 45.4134 96.3497 45.4136 96.182 45.4137C96.1115 45.4138 96.1115 45.4138 96.0396 45.4139C95.6315 45.4141 95.2244 45.4062 94.8165 45.3942C94.7105 45.3913 94.7105 45.3913 94.6024 45.3882C94.4184 45.383 94.2344 45.3777 94.0504 45.3723C93.8999 45.3679 93.7494 45.3638 93.5988 45.3597C93.4176 45.3547 93.2364 45.3494 93.0551 45.3442C92.9883 45.3424 92.9215 45.3405 92.8526 45.3387C92.7591 45.3359 92.7591 45.3359 92.6637 45.333C92.6092 45.3314 92.5548 45.3298 92.4987 45.3282C92.332 45.3185 92.1713 45.2959 92.0067 45.2719C91.948 44.1459 91.9432 43.0212 91.9446 41.8944C91.9448 41.6341 91.9447 41.3738 91.9447 41.1135C91.9447 40.6642 91.9448 40.215 91.9451 39.7657C91.9456 39.1162 91.9457 38.4667 91.9458 37.8171C91.9459 36.7629 91.9463 35.7087 91.9468 34.6545C91.9473 33.6313 91.9477 32.6082 91.948 31.5851C91.948 31.5535 91.948 31.5218 91.948 31.4893C91.9481 31.1716 91.9481 30.8539 91.9482 30.5363C91.9488 27.8792 91.9498 25.2222 91.951 22.5652C90.2602 22.5652 88.5693 22.5652 86.8271 22.5652C86.8271 21.477 86.8271 20.3888 86.8271 19.2676Z" fill="white"/>
<path d="M42.5571 19C44.1193 19 45.6816 19 47.2911 19C47.2926 21.4079 47.2871 23.8157 47.2809 26.2235C47.2808 26.2766 47.2806 26.3296 47.2805 26.3843C47.2778 27.4435 47.2751 28.5026 47.2722 29.5618C47.2716 29.7918 47.271 30.0218 47.2704 30.2518C47.2703 30.3089 47.2701 30.3661 47.2699 30.425C47.2675 31.356 47.2652 32.2871 47.263 33.2182C47.2608 34.1802 47.2583 35.1422 47.2557 36.1042C47.2542 36.6419 47.2528 37.1797 47.2517 37.7175C47.2507 38.1737 47.2495 38.6299 47.2481 39.0862C47.2474 39.3183 47.2468 39.5505 47.2464 39.7827C47.246 39.9957 47.2454 40.2088 47.2446 40.4218C47.2444 40.4982 47.2442 40.5747 47.2442 40.6511C47.2437 41.1927 47.2183 41.7313 47.1798 42.2719C47.2116 42.2705 47.2434 42.2691 47.2762 42.2676C47.3181 42.2658 47.36 42.2639 47.4031 42.262C47.4446 42.2601 47.4861 42.2583 47.5288 42.2564C48.0821 42.2316 48.6354 42.2069 49.1887 42.1823C49.4998 42.1684 49.8109 42.1545 50.1219 42.1406C50.4231 42.1271 50.7243 42.1137 51.0255 42.1003C51.1394 42.0952 51.2533 42.0901 51.3672 42.085C51.6839 42.0708 52.0006 42.0568 52.3173 42.0431C52.4205 42.0386 52.5236 42.034 52.6268 42.0294C52.78 42.0226 52.9331 42.0159 53.0863 42.0093C53.1306 42.0073 53.175 42.0053 53.2207 42.0032C53.6219 41.9863 54.0165 41.9893 54.42 41.9893C54.42 43.0931 54.42 44.1968 54.42 45.334C52.7003 45.4418 52.7003 45.4418 51.8393 45.4834C51.6739 45.4914 51.5084 45.4995 51.343 45.5077C51.1055 45.5194 50.868 45.5311 50.6304 45.5428C48.3365 45.6552 48.3365 45.6552 46.0437 45.7818C45.9961 45.7845 45.9485 45.7873 45.8994 45.7902C45.4568 45.8161 45.0143 45.8425 44.5717 45.8696C44.4138 45.8792 44.2557 45.8887 44.0977 45.8982C43.993 45.9046 43.8884 45.9112 43.7837 45.9178C43.7203 45.9216 43.6569 45.9254 43.5916 45.9293C43.5111 45.9343 43.5111 45.9343 43.429 45.9394C43.2359 45.9461 43.044 45.9472 42.8507 45.9469C42.7854 45.9468 42.72 45.9468 42.6526 45.9467C42.6027 45.9466 42.5528 45.9466 42.5014 45.9465C42.4982 41.4283 42.4997 36.9102 42.5136 32.3921C42.5138 32.3424 42.5139 32.2928 42.5141 32.2416C42.5179 30.989 42.522 29.7363 42.5262 28.4837C42.5287 27.7593 42.531 27.0349 42.5333 26.3105C42.5335 26.2583 42.5337 26.2062 42.5338 26.1524C42.5347 25.8903 42.5355 25.6282 42.5363 25.3661C42.5431 23.2441 42.5501 21.122 42.5571 19Z" fill="white"/>
<path d="M105.541 19.2676C107.085 19.2676 108.628 19.2676 110.219 19.2676C110.229 20.9382 110.238 22.6087 110.246 24.2793C110.247 24.3785 110.247 24.4778 110.248 24.577C110.267 28.3978 110.278 32.2185 110.278 39.3057C110.278 39.4307 110.278 39.5558 110.278 39.6809C110.278 41.7958 110.276 43.9107 110.275 46.0256C109.455 46.0287 109.455 46.0287 109.085 46.0091C109.014 46.0054 108.944 46.0018 108.872 45.9981C108.799 45.9941 108.726 45.9901 108.651 45.986C108.573 45.9819 108.495 45.9778 108.417 45.9737C108.255 45.9652 108.093 45.9565 107.932 45.9477C107.725 45.9365 107.519 45.9256 107.312 45.9147C107.152 45.9063 106.991 45.8978 106.831 45.8892C106.755 45.8851 106.678 45.881 106.602 45.877C106.496 45.8714 106.39 45.8656 106.283 45.8598C106.223 45.8566 106.163 45.8533 106.101 45.85C105.931 45.8372 105.765 45.8146 105.596 45.7901C105.586 44.4435 105.577 43.097 105.569 41.7504C105.568 41.6707 105.568 41.6707 105.568 41.5894C105.54 37.1867 105.536 32.7839 105.537 26.9728C105.537 26.8311 105.537 26.6895 105.537 26.5478C105.538 24.868 105.538 23.1881 105.539 21.5083C105.539 21.4724 105.539 21.4365 105.539 21.3996C105.54 20.6889 105.54 19.9782 105.541 19.2676Z" fill="white"/>
<path d="M99.0801 52.4326C100.083 52.4326 100.083 52.4326 100.323 52.6211C100.392 52.715 100.46 52.8092 100.528 52.9037C100.641 53.0282 100.761 53.1482 100.88 53.2688C101.114 53.5111 101.345 53.7554 101.572 54.0019C101.788 54.2352 102.007 54.4657 102.229 54.6944C102.399 54.8696 102.569 55.0451 102.739 55.2209C102.768 55.2517 102.798 55.2825 102.829 55.3142C103.034 55.5277 103.229 55.7451 103.424 55.9658C103.443 54.7999 103.461 53.6339 103.48 52.4326C103.811 52.4326 104.142 52.4326 104.482 52.4326C104.482 54.065 104.482 55.6973 104.482 57.3791C103.48 57.3791 103.48 57.3791 103.121 57.0905C103.029 56.9926 103.029 56.9926 102.963 56.9073C102.843 56.7581 102.718 56.6161 102.584 56.4756C102.508 56.3946 102.432 56.3128 102.357 56.2308C102.189 56.0483 102.017 55.8685 101.844 55.689C101.814 55.6577 101.783 55.6263 101.752 55.5939C101.66 55.498 101.567 55.4021 101.475 55.3063C101.087 54.9046 100.701 54.5022 100.324 54.0933C100.209 53.9653 100.209 53.9653 100.083 53.8459C100.064 55.0118 100.046 56.1778 100.027 57.3791C99.7144 57.3791 99.402 57.3791 99.0801 57.3791C99.0801 55.7467 99.0801 54.1144 99.0801 52.4326Z" fill="white"/>
<path d="M65.9983 52.5264C66.0417 52.5429 66.0852 52.5594 66.1299 52.5764C66.9162 52.9073 67.3923 53.4707 67.6722 54.1566C67.9032 54.8583 67.7952 55.6104 67.3861 56.2504C66.8802 56.9083 66.1624 57.3373 65.2534 57.5082C64.2938 57.5642 63.4428 57.4412 62.6949 56.8928C62.0166 56.3411 61.6597 55.7124 61.6367 54.9142C61.6512 54.1935 61.9373 53.5758 62.5294 53.0532C63.4317 52.3239 64.8437 52.0544 65.9983 52.5264ZM63.1474 53.71C62.8089 54.0652 62.6329 54.5221 62.6566 54.9761C62.7342 55.528 62.9548 55.9795 63.4363 56.3641C63.9505 56.6979 64.4782 56.7573 65.1072 56.7191C65.6523 56.6115 66.0881 56.3213 66.4136 55.9433C66.7549 55.4697 66.8128 54.9352 66.6855 54.3964C66.5159 53.908 66.1758 53.5456 65.6641 53.2801C64.767 52.8795 63.8225 53.1144 63.1474 53.71Z" fill="white"/>
<path d="M88.4215 52.7303C89.0819 53.1263 89.533 53.6558 89.7077 54.3304C89.8531 55.0619 89.7423 55.7388 89.2638 56.3691C88.7415 56.9855 88.1026 57.3538 87.2184 57.501C86.3017 57.6072 85.4993 57.4211 84.7472 56.9712C84.1714 56.5743 83.7852 55.9681 83.6526 55.3535C83.5559 54.5351 83.7813 53.8606 84.3279 53.1806C85.3677 52.2112 87.1315 52.0291 88.4215 52.7303ZM85.1425 53.7224C84.7618 54.1213 84.5918 54.6071 84.6551 55.118C84.7724 55.6528 85.0375 56.0953 85.5462 56.437C86.0881 56.7111 86.645 56.8106 87.2689 56.6875C87.8782 56.494 88.2991 56.1475 88.5711 55.6509C88.7951 55.2137 88.797 54.6893 88.611 54.2419C88.3708 53.7669 88.017 53.4071 87.4503 53.1894C86.572 52.9418 85.76 53.1505 85.1425 53.7224Z" fill="white"/>
<path d="M73.6834 52.8097C74.2878 53.1929 74.6921 53.7383 74.853 54.3643C74.9364 55.2678 74.7883 55.9883 74.0942 56.7021C73.5422 57.2036 72.8194 57.4836 72.0141 57.5302C71.129 57.5415 70.3172 57.3338 69.6608 56.8114C68.9927 56.1915 68.7337 55.5059 68.763 54.6782C68.8032 54.0762 69.1362 53.407 69.6734 52.9981C70.8552 52.2153 72.4098 52.0345 73.6834 52.8097ZM70.1747 53.799C69.8235 54.2711 69.7035 54.7789 69.8231 55.3271C69.9887 55.8914 70.34 56.2502 70.9089 56.5541C71.3695 56.7638 71.8878 56.7863 72.3959 56.689C72.9449 56.5194 73.3536 56.2114 73.6277 55.7776C73.8871 55.2906 73.9571 54.7565 73.7441 54.245C73.4863 53.7511 73.127 53.4052 72.5393 53.1792C71.651 52.9212 70.7596 53.1933 70.1747 53.799Z" fill="white"/>
<path d="M111.723 52.762C111.778 52.7931 111.833 52.8242 111.89 52.8562C111.86 53.0512 111.735 53.1516 111.58 53.292C111.534 53.334 111.488 53.376 111.441 53.4193C111.405 53.4511 111.37 53.483 111.333 53.5158C111.297 53.5004 111.261 53.485 111.224 53.4692C110.523 53.1822 109.778 53.0157 109.019 53.2313C108.484 53.4233 108.129 53.719 107.89 54.1635C107.663 54.6624 107.662 55.14 107.891 55.6393C108.14 56.0976 108.48 56.4459 109.05 56.625C109.266 56.6864 109.488 56.6825 109.714 56.6838C109.752 56.6848 109.791 56.6858 109.83 56.6868C110.235 56.6893 110.521 56.6132 110.943 56.5307C110.943 55.9866 110.943 55.4425 110.943 54.8819C111.256 54.8819 111.568 54.8819 111.89 54.8819C111.902 55.1719 111.911 55.4618 111.917 55.752C111.92 55.8506 111.923 55.9492 111.928 56.0478C111.934 56.1898 111.937 56.3316 111.939 56.4737C111.941 56.5176 111.944 56.5615 111.947 56.6067C111.947 56.7357 111.941 56.8329 111.89 56.9547C111.337 57.4113 110.459 57.5188 109.721 57.5348C108.855 57.5218 108.116 57.2749 107.49 56.7663C106.817 56.1091 106.588 55.4101 106.655 54.5522C106.781 53.8143 107.232 53.2474 107.894 52.7708C108.979 52.0864 110.608 52.2073 111.723 52.762Z" fill="white"/>
<path d="M45.7804 52.4326C46.1296 52.4326 46.4788 52.4326 46.8386 52.4326C46.8992 52.5706 46.8992 52.5706 46.9609 52.7114C47.0974 53.0224 47.2339 53.3334 47.3704 53.6444C47.4528 53.8321 47.5352 54.0199 47.6176 54.2076C47.6973 54.3893 47.7771 54.5711 47.8568 54.7528C47.8887 54.8254 47.9206 54.898 47.9524 54.9707C48.1281 55.3711 48.3046 55.7713 48.4837 56.1706C48.5151 56.241 48.5466 56.3113 48.5781 56.3817C48.6372 56.5139 48.6966 56.646 48.7563 56.778C48.7828 56.8371 48.8093 56.8963 48.8357 56.9555C48.8704 57.0325 48.8704 57.0325 48.9058 57.111C48.955 57.2378 48.955 57.2378 48.955 57.3791C48.6058 57.3791 48.2566 57.3791 47.8968 57.3791C47.713 56.9593 47.5292 56.5396 47.3399 56.1071C46.3198 56.0838 46.3198 56.0838 45.2792 56.06C45.224 56.2155 45.1689 56.3709 45.1121 56.5311C45.0552 56.6739 44.9976 56.8161 44.938 56.958C44.9233 56.9937 44.9086 57.0294 44.8934 57.0662C44.7848 57.3261 44.7848 57.3261 44.7222 57.3791C44.6474 57.3832 44.5724 57.3841 44.4975 57.3837C44.4524 57.3835 44.4074 57.3834 44.361 57.3832C44.3136 57.3828 44.2663 57.3824 44.2175 57.382C44.1699 57.3818 44.1224 57.3816 44.0734 57.3814C43.9555 57.3808 43.8376 57.38 43.7197 57.3791C43.7979 57.0445 43.9166 56.7344 44.0563 56.4148C44.0786 56.3631 44.101 56.3113 44.124 56.258C44.1966 56.0899 44.2697 55.9218 44.3428 55.7538C44.393 55.6379 44.4432 55.5219 44.4933 55.4059C44.5947 55.1716 44.6962 54.9373 44.7979 54.703C44.9338 54.39 45.0693 54.0769 45.2045 53.7636C45.3962 53.3199 45.5882 52.8762 45.7804 52.4326ZM46.2817 53.6575C46.1863 53.8771 46.0911 54.0967 45.9961 54.3165C45.9638 54.3913 45.9314 54.466 45.8989 54.5408C45.8523 54.648 45.8059 54.7554 45.7595 54.8628C45.7376 54.9131 45.7376 54.9131 45.7152 54.9644C45.6394 55.131 45.6394 55.131 45.6133 55.3063C46.0728 55.3063 46.5323 55.3063 47.0057 55.3063C46.8676 54.9157 46.8676 54.9157 46.7126 54.5316C46.6906 54.4799 46.6685 54.4283 46.6457 54.3751C46.6232 54.3229 46.6007 54.2707 46.5775 54.2169C46.5544 54.1628 46.5312 54.1088 46.5074 54.0531C46.4508 53.9212 46.3942 53.7893 46.3374 53.6575C46.319 53.6575 46.3006 53.6575 46.2817 53.6575Z" fill="white"/>
<path d="M91.729 52.4326C92.0415 52.4326 92.3539 52.4326 92.6758 52.4326C92.6766 52.5317 92.6775 52.6308 92.6783 52.7329C92.6811 53.0616 92.6848 53.3903 92.689 53.719C92.6914 53.9181 92.6936 54.1172 92.6951 54.3164C92.6966 54.5088 92.6988 54.7012 92.7016 54.8937C92.7026 54.9668 92.7032 55.04 92.7036 55.1131C92.7059 55.5565 92.7155 55.9432 92.9926 56.3338C93.3942 56.6552 93.8755 56.6937 94.4041 56.6855C94.7677 56.664 94.9888 56.5726 95.2308 56.3456C95.4871 56.0332 95.522 55.7271 95.5277 55.3527C95.5282 55.3209 95.5288 55.2892 95.5294 55.2565C95.5311 55.1525 95.5325 55.0485 95.5339 54.9445C95.535 54.872 95.5362 54.7995 95.5374 54.7271C95.5404 54.537 95.5432 54.347 95.5459 54.1569C95.5487 53.9627 95.5518 53.7685 95.5549 53.5743C95.5608 53.1937 95.5665 52.8132 95.5719 52.4326C95.8844 52.4326 96.1968 52.4326 96.5187 52.4326C96.5225 52.8704 96.5256 53.3082 96.5274 53.746C96.5283 53.9494 96.5294 54.1527 96.5314 54.3561C96.5332 54.5528 96.5342 54.7495 96.5346 54.9462C96.5349 55.0208 96.5355 55.0954 96.5364 55.17C96.5445 55.8573 96.4833 56.4964 95.9327 57.0386C95.4084 57.4648 94.6919 57.5361 93.9994 57.5305C93.2746 57.4956 92.6686 57.3279 92.1631 56.8789C91.8309 56.5055 91.7199 56.0721 91.7227 55.6147C91.7227 55.5802 91.7227 55.5457 91.7227 55.5102C91.7227 55.3968 91.7232 55.2833 91.7236 55.1699C91.7237 55.091 91.7238 55.0122 91.7238 54.9333C91.724 54.7261 91.7246 54.5189 91.7252 54.3118C91.7258 54.1002 91.726 53.8886 91.7263 53.6771C91.7269 53.2622 91.7279 52.8474 91.729 52.4326Z" fill="white"/>
<path d="M114.396 52.4326C115.407 52.4326 116.418 52.4326 117.46 52.4326C117.46 52.6969 117.46 52.9612 117.46 53.2335C116.78 53.2335 116.1 53.2335 115.399 53.2335C115.399 53.6377 115.399 54.0419 115.399 54.4583C116.005 54.4583 116.612 54.4583 117.237 54.4583C117.237 54.707 117.237 54.9558 117.237 55.2121C116.63 55.2121 116.024 55.2121 115.399 55.2121C115.399 55.6784 115.399 56.1448 115.399 56.6253C116.097 56.6253 116.796 56.6253 117.515 56.6253C117.515 56.8741 117.515 57.1228 117.515 57.3791C116.486 57.3791 115.457 57.3791 114.396 57.3791C114.396 55.7467 114.396 54.1144 114.396 52.4326Z" fill="white"/>
<path d="M84.823 8.62108C85.4138 8.96627 85.7092 9.4496 85.8778 10.0285C86.0482 10.8289 85.9537 11.6434 85.4357 12.3427C85.1384 12.69 84.8209 12.9106 84.3218 13.0022C83.8928 13.0385 83.5034 12.9123 83.1661 12.6901C82.608 12.247 82.3693 11.5571 82.3168 10.9294C82.2985 10.2072 82.4599 9.44223 83.0467 8.88699C83.547 8.48711 84.1913 8.31315 84.823 8.62108ZM83.6187 9.40132C83.1332 9.92983 83.1545 10.626 83.2079 11.2592C83.2945 11.6386 83.4641 11.9426 83.7823 12.219C83.9841 12.3223 84.0893 12.3295 84.3218 12.2956C84.6984 12.1126 84.8628 11.8354 84.9849 11.4957C85.1369 10.9975 85.1444 10.5617 85.0041 10.0638C84.9953 10.0324 84.9866 10.001 84.9776 9.96869C84.8689 9.61818 84.6597 9.3948 84.3218 9.18639C84.0424 9.06821 83.8178 9.23685 83.6187 9.40132Z" fill="white"/>
<path d="M89.9257 8.74501C90.521 9.24849 90.7917 9.89785 90.8004 10.6001C90.8001 10.6438 90.7998 10.6874 90.7994 10.7324C90.7991 10.7781 90.7988 10.8239 90.7985 10.871C90.7853 11.5303 90.5826 12.1424 90.0302 12.6286C89.6607 12.9156 89.3336 13.0108 88.8327 13.0025C88.3661 12.9428 88.0775 12.7027 87.7641 12.4225C87.1964 11.7104 87.076 10.8533 87.2561 10.0157C87.3601 9.65325 87.5189 9.34873 87.7745 9.04533C87.8102 9.00161 87.8458 8.95788 87.8825 8.91283C88.4861 8.37127 89.2057 8.36798 89.9257 8.74501ZM88.4429 9.4222C88.348 9.54241 88.2818 9.6645 88.2201 9.79908C88.2034 9.83527 88.1866 9.87146 88.1694 9.90875C87.9363 10.5067 87.9731 11.2044 88.2758 11.7777C88.4799 12.1014 88.4799 12.1014 88.8327 12.2959C89.0591 12.3208 89.229 12.3024 89.4167 12.1855C89.9065 11.7327 89.9793 11.1166 89.964 10.5352C89.9367 10.0703 89.7895 9.61639 89.3897 9.28087C89.0382 9.0827 88.7025 9.15345 88.4429 9.4222Z" fill="white"/>
<path d="M56.084 52.4326C57.6646 52.4326 59.2452 52.4326 60.8737 52.4326C60.8737 52.6969 60.8737 52.9612 60.8737 53.2335C60.2488 53.2335 59.6239 53.2335 58.9801 53.2335C58.9801 54.6015 58.9801 55.9696 58.9801 57.3791C58.6493 57.3791 58.3184 57.3791 57.9776 57.3791C57.9776 56.011 57.9776 54.643 57.9776 53.2335C57.3527 53.2335 56.7278 53.2335 56.084 53.2335C56.084 52.9692 56.084 52.7049 56.084 52.4326Z" fill="white"/>
<path d="M92.6194 8.57422C93.4649 8.57422 94.3103 8.57422 95.1814 8.57422C95.1814 8.79186 95.1814 9.00951 95.1814 9.23375C94.2992 9.25707 94.2992 9.25707 93.3992 9.28086C93.3624 9.51405 93.3256 9.74724 93.2878 9.9875C93.4164 9.9564 93.5451 9.92531 93.6776 9.89328C94.1608 9.85978 94.6377 9.95518 95.0143 10.223C95.39 10.5866 95.5362 10.9385 95.5275 11.4216C95.4779 11.9217 95.289 12.3224 94.8542 12.6639C94.4419 12.949 94.0013 13.0289 93.4764 12.9924C93.0888 12.9388 92.7216 12.8303 92.4622 12.5713C92.1724 12.2147 92.0991 11.9233 92.0625 11.495C92.3566 11.495 92.6506 11.495 92.9536 11.495C92.9674 11.5601 92.9812 11.6252 92.9954 11.6923C93.0472 11.8885 93.1137 12.0116 93.2878 12.1545C93.5244 12.2735 93.7427 12.2811 94.0118 12.2487C94.3266 12.1107 94.4716 11.977 94.5827 11.6952C94.652 11.4278 94.6253 11.2138 94.4782 10.965C94.2707 10.7617 94.1066 10.6622 93.7934 10.6306C93.4101 10.6217 93.0683 10.6674 92.7008 10.7574C92.5637 10.7884 92.5637 10.7884 92.3967 10.7884C92.3856 10.3834 92.423 9.98536 92.465 9.58244C92.4768 9.46826 92.4882 9.35404 92.4995 9.23982C92.5069 9.16713 92.5143 9.09444 92.5218 9.02176C92.5251 8.98765 92.5285 8.95355 92.532 8.91842C92.5573 8.67928 92.5573 8.67928 92.6194 8.57422Z" fill="white"/>
<path d="M49.4014 52.4326C50.982 52.4326 52.5626 52.4326 54.1911 52.4326C54.1911 52.6969 54.1911 52.9612 54.1911 53.2335C53.5478 53.2335 52.9045 53.2335 52.2418 53.2335C52.2418 54.6015 52.2418 55.9696 52.2418 57.3791C51.9293 57.3791 51.6169 57.3791 51.295 57.3791C51.295 56.011 51.295 54.643 51.295 53.2335C50.6701 53.2335 50.0452 53.2335 49.4014 53.2335C49.4014 52.9692 49.4014 52.7049 49.4014 52.4326Z" fill="white"/>
<path d="M38.54 52.4326C40.1206 52.4326 41.7013 52.4326 43.3298 52.4326C43.3298 52.6969 43.3298 52.9612 43.3298 53.2335C42.6865 53.2335 42.0432 53.2335 41.3805 53.2335C41.3805 54.6015 41.3805 55.9696 41.3805 57.3791C41.068 57.3791 40.7556 57.3791 40.4336 57.3791C40.4336 56.011 40.4336 54.643 40.4336 53.2335C39.8088 53.2335 39.1839 53.2335 38.54 53.2335C38.54 52.9692 38.54 52.7049 38.54 52.4326Z" fill="white"/>
<path d="M80.2125 8.68028C80.51 8.85327 80.7315 9.07443 80.8464 9.36723C80.9807 9.99648 80.7925 10.5526 80.3774 11.074C80.2314 11.2396 80.0791 11.3991 79.9214 11.5567C79.8943 11.5838 79.8672 11.6109 79.8394 11.6387C79.6382 11.8344 79.435 11.9821 79.1974 12.1544C79.8222 12.1699 80.4471 12.1855 81.091 12.2015C81.091 12.4192 81.091 12.6368 81.091 12.861C79.8228 12.861 78.5546 12.861 77.248 12.861C77.6237 12.4903 77.6237 12.4903 77.8043 12.3491C77.8434 12.3183 77.8825 12.2876 77.9228 12.2559C77.9632 12.2243 78.0036 12.1928 78.0452 12.1603C78.1298 12.0933 78.2145 12.0264 78.2991 11.9593C78.3757 11.8987 78.4524 11.8381 78.529 11.7775C79.1631 11.2758 79.9321 10.6236 79.991 9.85194C79.9868 9.66132 79.939 9.53502 79.81 9.37495C79.5815 9.20009 79.3956 9.15593 79.096 9.1683C78.8437 9.20616 78.6913 9.31649 78.5429 9.48684C78.4566 9.63368 78.4566 9.63368 78.3619 9.89316C78.0862 9.89316 77.8106 9.89316 77.5265 9.89316C77.5509 9.46644 77.6914 9.11727 78.0626 8.81553C78.6847 8.39788 79.5223 8.35154 80.2125 8.68028Z" fill="white"/>
<path d="M60.54 8.57422C61.4222 8.57422 62.3044 8.57422 63.2134 8.57422C63.2134 8.80741 63.2134 9.0406 63.2134 9.28086C62.6252 9.28086 62.0371 9.28086 61.4311 9.28086C61.4311 9.62287 61.4311 9.96488 61.4311 10.3173C61.9458 10.3173 62.4604 10.3173 62.9906 10.3173C62.9906 10.5504 62.9906 10.7836 62.9906 11.0239C62.476 11.0239 61.9614 11.0239 61.4311 11.0239C61.4311 11.4125 61.4311 11.8012 61.4311 12.2016C62.0377 12.2016 62.6442 12.2016 63.2691 12.2016C63.2691 12.4193 63.2691 12.6369 63.2691 12.8612C62.3685 12.8612 61.4679 12.8612 60.54 12.8612C60.54 11.4465 60.54 10.0318 60.54 8.57422Z" fill="white"/>
<path d="M67.5312 8.7433C67.6365 8.80947 67.7374 8.87712 67.8358 8.9505C67.7573 9.09365 67.6638 9.21403 67.5503 9.33915C67.5203 9.37243 67.4903 9.40571 67.4594 9.44C67.4366 9.46502 67.4137 9.49004 67.3902 9.51581C67.2594 9.47432 67.1332 9.43195 67.0117 9.37338C66.6691 9.20993 66.3782 9.1843 65.9979 9.27143C65.8681 9.32273 65.8681 9.32273 65.8308 9.4687C65.8083 9.61398 65.7951 9.70619 65.8308 9.84558C66.0547 10.0627 66.337 10.1875 66.6279 10.3314C67.101 10.5658 67.6072 10.8262 67.8049 11.2817C67.9328 11.7725 67.8272 12.1519 67.5155 12.5661C67.125 12.8965 66.7469 12.9661 66.2137 12.9695C65.4652 12.969 65.0823 12.7909 64.5498 12.3424C64.6283 12.1992 64.7218 12.0788 64.8352 11.9537C64.8652 11.9204 64.8953 11.8872 64.9262 11.8529C64.9604 11.8153 64.9604 11.8153 64.9954 11.7771C65.1621 11.8431 65.3055 11.9217 65.4548 12.0126C65.7823 12.1973 66.0404 12.2785 66.433 12.2158C66.6157 12.1799 66.712 12.1343 66.8333 12.0126C66.9225 11.8617 66.9116 11.7557 66.889 11.5886C66.6939 11.3203 66.4165 11.1736 66.0953 11.0292C65.5922 10.7906 65.1189 10.5475 64.884 10.0811C64.789 9.74183 64.7994 9.38731 65.0119 9.08245C65.6123 8.37434 66.6676 8.2811 67.5312 8.7433Z" fill="white"/>
<path d="M79.1973 52.4326C79.5281 52.4326 79.8589 52.4326 80.1998 52.4326C80.1998 53.8162 80.1998 55.1998 80.1998 56.6253C80.9901 56.6253 81.7804 56.6253 82.5946 56.6253C82.5946 56.8741 82.5946 57.1228 82.5946 57.3791C81.4735 57.3791 80.3524 57.3791 79.1973 57.3791C79.1973 55.7467 79.1973 54.1144 79.1973 52.4326Z" fill="white"/>
<path d="M69.0615 8.57422C70.4216 8.57422 71.7816 8.57422 73.1829 8.57422C73.1829 8.80741 73.1829 9.0406 73.1829 9.28086C72.6315 9.28086 72.0802 9.28086 71.5121 9.28086C71.5121 10.4624 71.5121 11.6439 71.5121 12.8612C71.2364 12.8612 70.9607 12.8612 70.6767 12.8612C70.6767 11.6797 70.6767 10.4982 70.6767 9.28086C70.1437 9.28086 69.6107 9.28086 69.0615 9.28086C69.0615 9.04767 69.0615 8.81448 69.0615 8.57422Z" fill="white"/>
<path d="M74.3524 12.0595C74.5576 12.2048 74.6231 12.2879 74.6552 12.513C74.6183 12.754 74.6183 12.754 74.5195 12.8604C74.3275 12.9699 74.2161 13.0022 73.9834 12.9988C73.7715 12.949 73.6943 12.9205 73.5727 12.7662C73.5044 12.5758 73.492 12.4378 73.5866 12.2539C73.8014 12.0333 74.0338 12.0062 74.3524 12.0595Z" fill="white"/>
</svg>
